
<svg xmlns="http://www.w3.org/2000/svg" version="1.1" xmlns:xlink="http://www.w3.org/1999/xlink" preserveAspectRatio="none" x="0px" y="0px" width="510px" height="42px" viewBox="0 0 510 42">
<defs>
<g id="Layer0_0_FILL">
<path fill="#FFFFFF" stroke="none" d="
M 510 42
L 510 0 0 0 0 42 510 42 Z"/>
</g>

<g id="Layer0_0_MEMBER_0_MEMBER_0_FILL">
<path fill="#000000" stroke="none" d="
M 25.4 8.4
L 25.4 5.65 0.05 5.65 0.05 8.4 11.2 8.4 11.2 36.9 14.25 36.9 14.25 8.4 25.4 8.4
M 54.65 5.65
L 51.6 5.65 51.6 19.55 33.1 19.55 33.1 5.65 30 5.65 30 36.9 33.1 36.9 33.1 22.3 51.6 22.3 51.6 36.9 54.65 36.9 54.65 5.65
M 83.05 8.4
L 83.05 5.65 62.45 5.65 62.45 36.9 83.45 36.9 83.45 34.15 65.55 34.15 65.55 22.25 80.8 22.25 80.8 19.65 65.55 19.65 65.55 8.4 83.05 8.4 Z"/>
</g>

<g id="Layer0_0_MEMBER_0_MEMBER_1_FILL">
<path fill="#000000" stroke="none" d="
M 126.05 36.9
L 128.8 36.9 142.05 5.65 138.7 5.65 127.4 33.35 121.4 19.2 126.85 5.9 123.9 5.9 119.45 16.95 115.05 5.9 112.15 5.9 117.6 19.2 111.7 33.35 100.3 5.65 97.05 5.65 110.25 36.9 112.9 36.9 119.5 21.45 126.05 36.9
M 164.75 22.25
L 164.75 19.65 149.5 19.65 149.5 8.4 167 8.4 167 5.65 146.4 5.65 146.4 36.9 167.4 36.9 167.4 34.15 149.5 34.15 149.5 22.25 164.75 22.25
M 190.3 6.9
Q 187.5 5.65 183.75 5.65
L 173.15 5.65 173.15 36.9 183.75 36.9
Q 187.2 36.9 189.95 35.8 192.7 34.65 194.65 32.6 196.6 30.55 197.65 27.7 198.75 24.8 198.75 21.25 198.75 18 197.8 15.2 196.85 12.35 194.95 10.25 193.1 8.15 190.3 6.9
M 194.85 16.05
Q 195.65 18.4 195.65 21.25 195.65 24 194.9 26.35 194.1 28.7 192.6 30.45 191.1 32.2 188.9 33.2 186.65 34.15 183.75 34.15
L 176.25 34.15 176.25 8.4 183.75 8.4
Q 186.65 8.4 188.8 9.35 191.05 10.3 192.55 12 194.05 13.7 194.85 16.05
M 239.15 5.65
L 236.05 5.65 236.05 36.9 239.15 36.9 239.15 5.65
M 229.25 15.2
Q 228.3 12.35 226.4 10.25 224.55 8.15 221.75 6.9 218.95 5.65 215.2 5.65
L 204.6 5.65 204.6 36.9 215.2 36.9
Q 218.65 36.9 221.4 35.8 224.15 34.65 226.1 32.6 228.05 30.55 229.1 27.7 230.2 24.8 230.2 21.25 230.2 18 229.25 15.2
M 226.3 16.05
Q 227.1 18.4 227.1 21.25 227.1 24 226.35 26.35 225.55 28.7 224.05 30.45 222.55 32.2 220.35 33.2 218.1 34.15 215.2 34.15
L 207.7 34.15 207.7 8.4 215.2 8.4
Q 218.1 8.4 220.25 9.35 222.5 10.3 224 12 225.5 13.7 226.3 16.05
M 273.1 5.7
L 270 5.7 270 31.65 249.35 5.65 246.95 5.65 246.95 36.9 250.05 36.9 250.05 11.4 270.4 36.9 273.1 36.9 273.1 5.7
M 300.85 7.35
Q 299.35 6.45 297.45 5.95 295.55 5.45 293.3 5.45 290.15 5.45 287.5 6.75 284.9 8.05 282.95 10.2 281 12.4 279.9 15.25 278.85 18.1 278.85 21.25 278.85 24.2 279.95 27.05 281.05 29.9 283 32.15 284.95 34.4 287.65 35.75 290.3 37.1 293.45 37.1 299.15 37.1 303.5 32.3
L 303.5 36.9 306.1 36.9 306.1 21.55 296.55 21.55 296.55 23.9 303.5 23.9 303.5 29.1
Q 301.25 31.85 298.8 33.1 296.35 34.35 293.65 34.35 291.15 34.35 289.05 33.3 286.9 32.25 285.3 30.45 283.7 28.65 282.8 26.3 281.9 23.9 281.9 21.3 281.9 18.75 282.7 16.45 283.5 14.05 285 12.25 286.45 10.4 288.55 9.3 290.65 8.2 293.25 8.2 296.35 8.2 298.85 9.55 301.3 10.95 302.8 13.85
L 305.2 12.25
Q 304.45 10.75 303.4 9.5 302.3 8.25 300.85 7.35 Z"/>
</g>

<g id="Layer0_0_MEMBER_0_MEMBER_2_FILL">
<path fill="#000000" stroke="none" d="
M 350.55 5.9
L 347.6 5.9 343.15 16.95 338.75 5.9 335.85 5.9 341.3 19.2 335.4 33.35 324 5.65 320.75 5.65 333.95 36.9 336.6 36.9 343.2 21.45 349.75 36.9 352.5 36.9 365.75 5.65 362.4 5.65 351.1 33.35 345.1 19.2 350.55 5.9
M 382.4 5.65
L 379.8 5.65 366.75 36.9 370 36.9 374.05 27.1 388.05 27.1 392.1 36.9 395.4 36.9 382.4 5.65
M 374.7 24.7
L 381.05 9.25 387.35 24.7 374.7 24.7
M 419.65 8.75
Q 418.45 7.4 416.75 6.5 415.05 5.65 413 5.65
L 399.8 5.65 399.8 36.9 402.9 36.9 402.9 25.35 412.15 25.35 419.5 36.9 422.95 36.9 415.3 24.85
Q 416.9 24.55 418.15 23.7 419.45 22.85 420.35 21.55 421.25 20.3 421.75 18.75 422.25 17.2 422.25 15.5 422.25 13.7 421.55 11.9 420.9 10.15 419.65 8.75
M 415.3 8.95
Q 416.45 9.55 417.3 10.5 418.15 11.45 418.65 12.75 419.15 14.05 419.15 15.5 419.15 16.9 418.75 18.15 418.3 19.45 417.5 20.45 416.7 21.45 415.6 22.05 414.45 22.65 413.1 22.65
L 402.9 22.65 402.9 8.4 412.85 8.4
Q 414.1 8.4 415.3 8.95
M 450.25 11.9
Q 449.6 10.15 448.35 8.75 447.15 7.4 445.45 6.5 443.75 5.65 441.7 5.65
L 428.5 5.65 428.5 36.9 431.6 36.9 431.6 25.35 440.85 25.35 448.2 36.9 451.65 36.9 444 24.85
Q 445.6 24.55 446.85 23.7 448.15 22.85 449.05 21.55 449.95 20.3 450.45 18.75 450.95 17.2 450.95 15.5 450.95 13.7 450.25 11.9
M 447.85 15.5
Q 447.85 16.9 447.45 18.15 447 19.45 446.2 20.45 445.4 21.45 444.3 22.05 443.15 22.65 441.8 22.65
L 431.6 22.65 431.6 8.4 441.55 8.4
Q 442.8 8.4 444 8.95 445.15 9.55 446 10.5 446.85 11.45 447.35 12.75 447.85 14.05 447.85 15.5
M 475.55 22.25
L 475.55 19.65 460.3 19.65 460.3 8.4 477.8 8.4 477.8 5.65 457.2 5.65 457.2 36.9 478.2 36.9 478.2 34.15 460.3 34.15 460.3 22.25 475.55 22.25
M 510.1 36.9
L 510.1 5.7 507 5.7 507 31.65 486.35 5.65 483.95 5.65 483.95 36.9 487.05 36.9 487.05 11.4 507.4 36.9 510.1 36.9 Z"/>
</g>
</defs>

<g transform="matrix( 1, 0, 0, 1, 0,0) ">
<use xlink:href="#Layer0_0_FILL"/>
</g>

<g transform="matrix( 1, 0, 0, 1, 0,-0.45) ">
<use xlink:href="#Layer0_0_MEMBER_0_MEMBER_0_FILL"/>
</g>

<g transform="matrix( 1, 0, 0, 1, 0,-0.45) ">
<use xlink:href="#Layer0_0_MEMBER_0_MEMBER_1_FILL"/>
</g>

<g transform="matrix( 1, 0, 0, 1, 0,-0.45) ">
<use xlink:href="#Layer0_0_MEMBER_0_MEMBER_2_FILL"/>
</g>
</svg>
