<?xml version="1.0" encoding="UTF-8" standalone="no"?>
<!DOCTYPE svg PUBLIC "-//W3C//DTD SVG 1.1//EN" "http://www.w3.org/Graphics/SVG/1.1/DTD/svg11.dtd">
<svg width="100%" height="100%" viewBox="0 0 183 130" version="1.1" xmlns="http://www.w3.org/2000/svg" xmlns:xlink="http://www.w3.org/1999/xlink" xml:space="preserve" xmlns:serif="http://www.serif.com/" style="fill-rule:evenodd;clip-rule:evenodd;stroke-linejoin:round;stroke-miterlimit:1.41421;">
    <g transform="matrix(1,0,0,1,-158.014,-329.983)">
        <g id="Shape-2" serif:id="Shape 2">
            <path d="M340.986,382.392C340.986,353.447 300.026,329.983 249.502,329.983C198.974,329.983 158.014,353.447 158.014,382.392C158.014,407.158 188.016,427.897 228.332,433.372C225.049,442.637 219.575,453.561 210.985,459.016C227.537,459.04 243.858,446.114 255.047,434.694C302.988,433.05 340.986,410.266 340.986,382.392Z" style="fill:rgb(145,167,207);"/>
            <path d="M250.094,329.984L250.684,329.987L251.274,329.992L251.863,330L252.451,330.009L253.038,330.021L253.624,330.035L254.21,330.051L254.794,330.069L255.377,330.089L255.959,330.111L256.541,330.135L257.121,330.162L257.7,330.19L258.278,330.221L258.855,330.253L259.431,330.288L260.006,330.324L260.58,330.363L261.153,330.404L261.725,330.446L262.296,330.491L262.865,330.538L263.434,330.586L264.001,330.637L264.567,330.69L265.132,330.745L265.696,330.801L266.258,330.86L266.82,330.92L267.38,330.983L267.939,331.047L268.496,331.114L269.053,331.182L269.608,331.252L270.162,331.325L270.715,331.399L271.266,331.475L271.816,331.553L272.365,331.633L272.912,331.714L273.458,331.798L274.003,331.883L274.546,331.971L275.088,332.06L275.629,332.151L276.168,332.244L276.706,332.339L277.242,332.435L277.777,332.534L278.311,332.634L278.843,332.736L279.374,332.84L279.903,332.946L280.43,333.053L280.957,333.163L281.481,333.274L282.004,333.387L282.526,333.501L283.046,333.618L283.565,333.736L284.082,333.856L284.597,333.978L285.111,334.101L285.623,334.226L286.134,334.353L286.643,334.482L287.15,334.612L287.656,334.744L288.16,334.878L288.663,335.014L289.163,335.151L289.662,335.29L290.16,335.43L290.656,335.572L291.149,335.716L291.642,335.862L292.132,336.009L292.621,336.158L293.108,336.308L293.593,336.46L294.077,336.614L294.558,336.769L295.038,336.926L295.516,337.085L295.992,337.245L296.467,337.407L296.939,337.57L297.41,337.735L297.878,337.901L298.345,338.07L298.81,338.239L299.273,338.41L299.734,338.583L300.194,338.757L300.651,338.933L301.106,339.111L301.559,339.289L302.011,339.47L302.46,339.652L302.908,339.835L303.353,340.02L303.796,340.206L304.238,340.394L304.677,340.584L305.114,340.775L305.549,340.967L305.982,341.161L306.413,341.356L306.842,341.553L307.269,341.751L307.694,341.95L308.116,342.151L308.537,342.354L308.955,342.557L309.371,342.763L309.785,342.969L310.196,343.177L310.606,343.387L311.013,343.597L311.418,343.81L311.821,344.023L312.222,344.238L312.62,344.454L313.016,344.672L313.41,344.891L313.801,345.111L314.19,345.333L314.577,345.556L314.962,345.78L315.344,346.006L315.724,346.232L316.101,346.461L316.476,346.69L316.849,346.921L317.22,347.153L317.588,347.386L317.953,347.621L318.316,347.857L318.677,348.094L319.035,348.332L319.391,348.572L319.744,348.812L320.095,349.055L320.443,349.298L320.789,349.542L321.132,349.788L321.473,350.035L321.812,350.283L322.147,350.532L322.48,350.783L322.811,351.034L323.139,351.287L323.464,351.541L323.787,351.796L324.107,352.053L324.425,352.31L324.74,352.569L325.052,352.828L325.362,353.089L325.669,353.351L325.973,353.614L326.274,353.878L326.573,354.144L326.869,354.41L327.163,354.677L327.453,354.946L327.741,355.216L328.026,355.486L328.309,355.758L328.588,356.031L328.865,356.305L329.139,356.579L329.41,356.855L329.679,357.132L329.944,357.41L330.207,357.689L330.467,357.969L330.723,358.25L330.977,358.532L331.229,358.815L331.477,359.099L331.722,359.384L331.965,359.67L332.204,359.957L332.44,360.245L332.674,360.534L332.904,360.823L333.132,361.114L333.357,361.406L333.578,361.698L333.797,361.992L334.012,362.286L334.119,362.434L334.225,362.581L334.33,362.729L334.434,362.877L334.537,363.026L334.64,363.175L334.742,363.323L334.844,363.472L334.944,363.622L335.044,363.771L335.143,363.921L335.241,364.071L335.338,364.221L335.435,364.372L335.531,364.522L335.626,364.673L335.72,364.824L335.813,364.975L335.906,365.127L335.998,365.279L336.089,365.43L336.179,365.583L336.269,365.735L336.357,365.887L336.445,366.04L336.532,366.193L336.619,366.346L336.704,366.499L336.789,366.653L336.873,366.807L336.956,366.961L337.038,367.115L337.12,367.269L337.201,367.424L337.281,367.579L337.36,367.734L337.438,367.889L337.515,368.044L337.592,368.2L337.668,368.355L337.743,368.511L337.817,368.667L337.891,368.824L337.963,368.98L338.035,369.137L338.106,369.294L338.176,369.451L338.245,369.608L338.314,369.766L338.381,369.923L338.448,370.081L338.514,370.239L338.579,370.397L338.643,370.556L338.707,370.714L338.769,370.873L338.831,371.032L338.892,371.191L338.952,371.35L339.011,371.51L339.07,371.67L339.127,371.829L339.184,371.989L339.24,372.15L339.295,372.31L339.349,372.471L339.402,372.631L339.455,372.792L339.506,372.953L339.557,373.114L339.607,373.276L339.656,373.437L339.704,373.599L339.752,373.761L339.798,373.923L339.843,374.085L339.888,374.248L339.932,374.41L339.975,374.573L340.017,374.736L340.058,374.899L340.099,375.062L340.138,375.226L340.177,375.389L340.214,375.553L340.251,375.717L340.287,375.881L340.322,376.045L340.356,376.209L340.39,376.374L340.422,376.538L340.453,376.703L340.484,376.868L340.514,377.033L340.543,377.198L340.571,377.364L340.598,377.529L340.624,377.695L340.649,377.861L340.673,378.027L340.697,378.193L340.719,378.359L340.741,378.526L340.762,378.692L340.782,378.859L340.801,379.026L340.819,379.193L340.836,379.36L340.852,379.527L340.867,379.695L340.881,379.862L340.895,380.03L340.907,380.198L340.919,380.366L340.93,380.534L340.939,380.702L340.948,380.871L340.956,381.039L340.963,381.208L340.969,381.376L340.974,381.545L340.979,381.714L340.982,381.884L340.984,382.053L340.986,382.222L340.986,382.392L340.986,382.555L340.984,382.718L340.982,382.881L340.979,383.044L340.975,383.207L340.971,383.37L340.965,383.532L340.958,383.695L340.951,383.857L340.943,384.019L340.934,384.181L340.924,384.343L340.913,384.505L340.901,384.667L340.889,384.828L340.876,384.99L340.861,385.151L340.846,385.312L340.831,385.473L340.814,385.634L340.796,385.795L340.778,385.955L340.759,386.116L340.739,386.276L340.718,386.437L340.696,386.597L340.673,386.757L340.65,386.917L340.626,387.076L340.6,387.236L340.574,387.395L340.548,387.555L340.52,387.714L340.492,387.873L340.462,388.032L340.432,388.19L340.401,388.349L340.37,388.507L340.337,388.666L340.304,388.824L340.27,388.982L340.235,389.14L340.199,389.298L340.162,389.455L340.125,389.613L340.086,389.77L340.047,389.927L340.007,390.084L339.967,390.241L339.925,390.397L339.883,390.554L339.84,390.71L339.796,390.867L339.751,391.023L339.705,391.179L339.659,391.334L339.612,391.49L339.564,391.645L339.515,391.801L339.466,391.956L339.415,392.111L339.364,392.265L339.312,392.42L339.26,392.575L339.206,392.729L339.152,392.883L339.097,393.037L339.041,393.191L338.984,393.345L338.927,393.498L338.869,393.651L338.81,393.805L338.75,393.958L338.69,394.11L338.628,394.263L338.566,394.415L338.503,394.568L338.44,394.72L338.375,394.872L338.31,395.024L338.244,395.175L338.177,395.327L338.11,395.478L338.042,395.629L337.973,395.78L337.903,395.931L337.832,396.081L337.761,396.232L337.689,396.382L337.616,396.532L337.543,396.682L337.468,396.831L337.393,396.981L337.317,397.13L337.241,397.279L337.163,397.428L337.007,397.726L336.847,398.022L336.684,398.318L336.518,398.613L336.349,398.907L336.177,399.201L336.003,399.493L335.825,399.785L335.644,400.077L335.461,400.367L335.275,400.657L335.085,400.945L334.893,401.233L334.698,401.52L334.5,401.807L334.3,402.092L334.096,402.377L333.89,402.661L333.681,402.944L333.469,403.226L333.254,403.507L333.037,403.787L332.816,404.067L332.593,404.346L332.367,404.623L332.139,404.9L331.907,405.176L331.673,405.451L331.437,405.726L331.197,405.999L330.955,406.271L330.71,406.543L330.462,406.813L330.212,407.083L329.959,407.352L329.704,407.619L329.446,407.886L329.185,408.152L328.922,408.417L328.656,408.681L328.387,408.944L328.116,409.206L327.842,409.466L327.566,409.726L327.287,409.985L327.005,410.243L326.722,410.5L326.435,410.756L326.146,411.011L325.855,411.265L325.561,411.518L325.264,411.77L324.965,412.021L324.664,412.271L324.36,412.519L324.054,412.767L323.745,413.014L323.434,413.259L323.12,413.504L322.804,413.747L322.486,413.989L322.165,414.231L321.842,414.471L321.516,414.71L321.188,414.948L320.858,415.184L320.525,415.42L320.191,415.655L319.853,415.888L319.514,416.12L319.172,416.351L318.828,416.581L318.482,416.81L318.133,417.038L317.782,417.264L317.429,417.49L317.074,417.714L316.716,417.937L316.356,418.159L315.994,418.379L315.63,418.599L315.264,418.817L314.895,419.034L314.524,419.249L314.152,419.464L313.777,419.677L313.399,419.889L313.02,420.1L312.639,420.31L312.255,420.518L311.87,420.725L311.482,420.931L311.092,421.135L310.7,421.339L310.307,421.541L309.911,421.741L309.513,421.941L309.113,422.139L308.711,422.336L308.307,422.531L307.901,422.725L307.493,422.918L307.083,423.11L306.671,423.3L306.257,423.489L305.841,423.676L305.424,423.862L305.004,424.047L304.582,424.23L304.159,424.413L303.734,424.593L303.306,424.773L302.877,424.95L302.446,425.127L302.013,425.302L301.579,425.476L301.142,425.648L300.704,425.819L300.264,425.989L299.822,426.157L299.378,426.323L298.932,426.489L298.485,426.652L298.036,426.815L297.585,426.975L297.133,427.135L296.678,427.293L296.222,427.449L295.765,427.604L295.305,427.758L294.844,427.91L294.381,428.06L293.917,428.209L293.451,428.357L292.983,428.503L292.513,428.647L292.042,428.79L291.57,428.932L291.095,429.072L290.619,429.21L290.142,429.347L289.663,429.482L289.182,429.616L288.7,429.748L288.216,429.879L287.731,430.008L287.244,430.135L286.756,430.261L286.266,430.385L285.774,430.508L285.281,430.629L284.787,430.748L284.291,430.866L283.794,430.983L283.295,431.097L282.795,431.21L282.293,431.321L281.79,431.431L281.286,431.539L280.78,431.646L280.273,431.75L279.764,431.853L279.254,431.955L278.743,432.054L278.23,432.152L277.716,432.249L277.201,432.343L276.684,432.436L276.166,432.528L275.646,432.617L275.126,432.705L274.604,432.791L274.081,432.875L273.556,432.958L273.031,433.039L272.504,433.118L271.976,433.195L271.446,433.271L270.916,433.345L270.384,433.417L269.851,433.487L269.317,433.556L268.781,433.623L268.245,433.688L267.707,433.751L267.168,433.812L266.628,433.872L266.087,433.929L265.545,433.985L265.002,434.039L264.458,434.092L263.912,434.142L263.366,434.191L262.818,434.237L262.27,434.282L261.72,434.325L261.169,434.366L260.618,434.406L260.065,434.443L259.511,434.478L258.956,434.512L258.401,434.544L257.844,434.574L257.287,434.602L256.728,434.628L256.168,434.652L255.608,434.674L255.047,434.694L254.784,434.962L254.518,435.23L254.252,435.499L253.983,435.769L253.712,436.038L253.44,436.308L253.166,436.579L252.89,436.849L252.612,437.12L252.333,437.391L252.052,437.662L251.769,437.934L251.484,438.205L251.198,438.476L250.91,438.748L250.62,439.019L250.329,439.29L250.036,439.561L249.741,439.832L249.445,440.102L249.147,440.372L248.848,440.642L248.547,440.912L248.244,441.181L247.94,441.45L247.634,441.718L247.327,441.986L247.019,442.253L246.709,442.52L246.397,442.786L246.084,443.051L245.77,443.315L245.454,443.579L245.136,443.842L244.818,444.104L244.497,444.365L244.176,444.626L243.853,444.885L243.529,445.143L243.203,445.4L242.876,445.656L242.548,445.911L242.219,446.165L241.888,446.417L241.556,446.669L241.223,446.919L240.888,447.167L240.553,447.414L240.216,447.66L239.878,447.904L239.539,448.147L239.198,448.388L238.856,448.628L238.514,448.866L238.17,449.102L237.825,449.337L237.479,449.57L237.132,449.801L236.784,450.03L236.434,450.257L236.084,450.482L235.733,450.706L235.38,450.927L235.027,451.146L234.673,451.363L234.318,451.578L233.961,451.791L233.604,452.002L233.246,452.21L232.887,452.417L232.527,452.62L232.166,452.822L231.805,453.021L231.442,453.217L231.079,453.411L230.715,453.602L230.35,453.791L229.984,453.977L229.617,454.161L229.25,454.342L228.882,454.52L228.513,454.695L228.144,454.867L227.773,455.037L227.402,455.204L227.217,455.286L227.031,455.367L226.845,455.448L226.658,455.528L226.472,455.607L226.285,455.685L226.099,455.763L225.912,455.84L225.725,455.916L225.537,455.991L225.35,456.066L225.162,456.139L224.975,456.212L224.787,456.284L224.599,456.356L224.411,456.426L224.223,456.496L224.034,456.565L223.846,456.633L223.657,456.7L223.468,456.766L223.279,456.831L223.09,456.896L222.901,456.96L222.712,457.023L222.522,457.085L222.332,457.146L222.143,457.206L221.953,457.265L221.763,457.324L221.573,457.381L221.383,457.438L221.192,457.494L221.002,457.548L220.811,457.602L220.621,457.655L220.43,457.707L220.239,457.759L220.048,457.809L219.857,457.858L219.666,457.906L219.474,457.954L219.283,458L219.092,458.046L218.9,458.09L218.708,458.134L218.517,458.176L218.325,458.218L218.133,458.258L217.941,458.298L217.749,458.336L217.556,458.374L217.364,458.41L217.172,458.446L216.979,458.48L216.787,458.514L216.594,458.546L216.402,458.578L216.209,458.608L216.016,458.637L215.823,458.666L215.63,458.693L215.437,458.719L215.244,458.744L215.051,458.768L214.858,458.791L214.665,458.813L214.472,458.834L214.278,458.853L214.085,458.872L213.891,458.889L213.698,458.906L213.504,458.921L213.311,458.935L213.117,458.948L212.924,458.96L212.73,458.971L212.536,458.98L212.342,458.989L212.149,458.996L211.955,459.002L211.761,459.007L211.567,459.011L211.373,459.014L211.179,459.015L210.985,459.016L211.186,458.887L211.386,458.756L211.584,458.623L211.782,458.488L211.978,458.352L212.173,458.213L212.367,458.073L212.56,457.931L212.751,457.786L212.942,457.64L213.132,457.493L213.32,457.343L213.507,457.192L213.693,457.039L213.878,456.884L214.062,456.728L214.245,456.569L214.427,456.41L214.608,456.248L214.787,456.085L214.966,455.921L215.143,455.754L215.319,455.587L215.495,455.417L215.669,455.247L215.842,455.074L216.014,454.901L216.185,454.725L216.355,454.549L216.524,454.371L216.691,454.191L216.858,454.01L217.024,453.828L217.188,453.645L217.352,453.46L217.514,453.274L217.676,453.086L217.836,452.898L217.995,452.708L218.154,452.517L218.311,452.325L218.467,452.131L218.622,451.937L218.777,451.741L218.93,451.544L219.082,451.346L219.233,451.147L219.383,450.947L219.532,450.746L219.68,450.544L219.827,450.341L219.974,450.138L220.119,449.933L220.263,449.727L220.406,449.52L220.548,449.313L220.689,449.104L220.829,448.895L220.968,448.685L221.106,448.474L221.243,448.262L221.379,448.05L221.515,447.836L221.649,447.622L221.782,447.408L221.914,447.193L222.046,446.977L222.176,446.76L222.305,446.543L222.434,446.325L222.561,446.107L222.688,445.888L222.813,445.668L222.938,445.448L223.061,445.228L223.184,445.007L223.306,444.786L223.427,444.564L223.547,444.342L223.666,444.119L223.784,443.896L223.901,443.673L224.017,443.449L224.132,443.225L224.247,443.001L224.36,442.776L224.472,442.551L224.584,442.326L224.695,442.101L224.805,441.876L224.913,441.65L225.021,441.424L225.129,441.198L225.235,440.972L225.34,440.746L225.444,440.52L225.548,440.294L225.651,440.068L225.752,439.842L225.853,439.616L225.953,439.389L226.052,439.163L226.151,438.937L226.248,438.712L226.44,438.26L226.629,437.809L226.814,437.359L226.996,436.91L227.175,436.462L227.35,436.016L227.522,435.571L227.69,435.127L227.856,434.685L228.017,434.245L228.176,433.808L228.332,433.372L227.86,433.307L227.389,433.241L226.919,433.174L226.449,433.104L225.981,433.034L225.514,432.962L225.048,432.889L224.583,432.815L224.119,432.739L223.656,432.661L223.193,432.583L222.732,432.503L222.272,432.422L221.813,432.339L221.355,432.255L220.898,432.17L220.442,432.083L219.987,431.995L219.534,431.906L219.081,431.815L218.629,431.723L218.179,431.63L217.729,431.535L217.281,431.439L216.834,431.342L216.388,431.244L215.943,431.144L215.499,431.043L215.056,430.94L214.615,430.837L214.174,430.732L213.735,430.626L213.297,430.518L212.86,430.409L212.424,430.299L211.99,430.188L211.557,430.076L211.125,429.962L210.694,429.847L210.264,429.731L209.836,429.613L209.408,429.495L208.982,429.375L208.558,429.253L208.134,429.131L207.712,429.008L207.291,428.883L206.871,428.757L206.453,428.63L206.036,428.501L205.62,428.372L205.206,428.241L204.793,428.109L204.381,427.976L203.97,427.841L203.561,427.706L203.153,427.569L202.747,427.431L202.341,427.292L201.938,427.152L201.535,427.01L201.134,426.868L200.734,426.724L200.336,426.58L199.939,426.434L199.544,426.287L199.15,426.138L198.757,425.989L198.366,425.839L197.976,425.687L197.588,425.534L197.201,425.38L196.815,425.226L196.431,425.069L196.049,424.912L195.667,424.754L195.288,424.595L194.91,424.434L194.533,424.273L194.158,424.11L193.784,423.947L193.412,423.782L193.042,423.616L192.673,423.449L192.305,423.282L191.939,423.113L191.575,422.943L191.212,422.772L190.85,422.599L190.491,422.426L190.133,422.252L189.776,422.077L189.421,421.901L189.068,421.723L188.716,421.545L188.366,421.366L188.017,421.186L187.67,421.004L187.325,420.822L186.981,420.639L186.639,420.454L186.299,420.269L185.96,420.083L185.623,419.895L185.288,419.707L184.954,419.518L184.622,419.328L184.292,419.137L183.963,418.944L183.637,418.751L183.312,418.557L182.988,418.362L182.666,418.166L182.347,417.969L182.028,417.772L181.712,417.573L181.397,417.373L181.084,417.173L180.773,416.971L180.464,416.769L180.156,416.565L179.851,416.361L179.547,416.156L179.245,415.95L178.944,415.743L178.646,415.535L178.349,415.326L178.054,415.116L177.761,414.906L177.47,414.694L177.181,414.482L176.893,414.269L176.608,414.055L176.324,413.84L176.043,413.624L175.763,413.407L175.485,413.19L175.209,412.972L174.934,412.752L174.662,412.532L174.392,412.312L174.124,412.09L173.857,411.867L173.593,411.644L173.33,411.42L173.07,411.195L172.811,410.969L172.555,410.743L172.3,410.515L172.047,410.287L171.797,410.058L171.548,409.828L171.302,409.598L171.057,409.366L170.815,409.134L170.574,408.901L170.336,408.668L170.099,408.433L169.865,408.198L169.633,407.962L169.402,407.726L169.174,407.488L168.948,407.25L168.724,407.011L168.502,406.771L168.283,406.531L168.065,406.29L167.85,406.048L167.636,405.805L167.425,405.562L167.216,405.318L167.009,405.073L166.804,404.828L166.601,404.582L166.401,404.335L166.203,404.087L166.006,403.839L165.813,403.59L165.621,403.341L165.431,403.09L165.244,402.839L165.059,402.588L164.876,402.336L164.695,402.083L164.517,401.829L164.341,401.575L164.167,401.32L163.995,401.064L163.826,400.808L163.659,400.551L163.494,400.294L163.332,400.036L163.171,399.777L163.013,399.518L162.858,399.258L162.705,398.997L162.554,398.736L162.405,398.474L162.259,398.212L162.115,397.949L161.973,397.685L161.834,397.421L161.697,397.156L161.562,396.891L161.43,396.625L161.301,396.359L161.173,396.092L161.048,395.824L160.926,395.556L160.806,395.287L160.688,395.018L160.573,394.748L160.46,394.477L160.35,394.207L160.242,393.935L160.136,393.663L160.033,393.391L159.933,393.118L159.835,392.844L159.739,392.57L159.646,392.295L159.555,392.02L159.467,391.744L159.382,391.468L159.299,391.192L159.218,390.915L159.14,390.637L159.065,390.359L158.992,390.08L158.922,389.801L158.854,389.522L158.789,389.242L158.726,388.961L158.666,388.68L158.609,388.399L158.554,388.117L158.502,387.835L158.452,387.552L158.405,387.269L158.361,386.986L158.319,386.701L158.28,386.417L158.243,386.132L158.21,385.847L158.178,385.561L158.15,385.275L158.124,384.988L158.101,384.701L158.081,384.414L158.063,384.126L158.048,383.838L158.036,383.55L158.026,383.261L158.019,382.972L158.015,382.682L158.014,382.392L158.014,382.222L158.016,382.053L158.018,381.884L158.021,381.714L158.026,381.545L158.031,381.376L158.037,381.208L158.044,381.039L158.052,380.871L158.061,380.702L158.07,380.534L158.081,380.366L158.093,380.198L158.105,380.03L158.119,379.862L158.133,379.695L158.148,379.527L158.164,379.36L158.181,379.193L158.2,379.026L158.218,378.859L158.238,378.692L158.259,378.526L158.281,378.359L158.303,378.193L158.327,378.027L158.351,377.861L158.376,377.695L158.402,377.529L158.429,377.364L158.457,377.198L158.486,377.033L158.516,376.868L158.547,376.703L158.578,376.538L158.61,376.374L158.644,376.209L158.678,376.045L158.713,375.881L158.749,375.717L158.786,375.553L158.823,375.389L158.862,375.226L158.901,375.062L158.942,374.899L158.983,374.736L159.025,374.573L159.068,374.41L159.112,374.248L159.157,374.085L159.202,373.923L159.248,373.761L159.296,373.599L159.344,373.437L159.393,373.276L159.443,373.114L159.494,372.953L159.545,372.792L159.598,372.631L159.651,372.471L159.705,372.31L159.76,372.15L159.816,371.989L159.873,371.829L159.93,371.67L159.989,371.51L160.048,371.35L160.108,371.191L160.169,371.032L160.231,370.873L160.293,370.714L160.357,370.556L160.421,370.397L160.486,370.239L160.552,370.081L160.619,369.923L160.686,369.766L160.755,369.608L160.824,369.451L160.894,369.294L160.965,369.137L161.037,368.98L161.109,368.824L161.183,368.667L161.257,368.511L161.332,368.355L161.408,368.2L161.485,368.044L161.562,367.889L161.64,367.734L161.719,367.579L161.799,367.424L161.88,367.269L161.962,367.115L162.044,366.961L162.127,366.807L162.211,366.653L162.296,366.499L162.381,366.346L162.468,366.193L162.555,366.04L162.643,365.887L162.731,365.735L162.821,365.583L162.911,365.43L163.002,365.279L163.094,365.127L163.187,364.975L163.28,364.824L163.375,364.673L163.47,364.522L163.565,364.372L163.662,364.221L163.759,364.071L163.857,363.921L163.956,363.771L164.056,363.622L164.157,363.472L164.258,363.323L164.36,363.175L164.463,363.026L164.566,362.877L164.67,362.729L164.776,362.581L164.881,362.434L164.988,362.286L165.203,361.992L165.422,361.698L165.644,361.406L165.868,361.114L166.096,360.823L166.326,360.534L166.56,360.245L166.796,359.957L167.036,359.67L167.278,359.384L167.523,359.099L167.771,358.815L168.023,358.532L168.277,358.25L168.534,357.969L168.793,357.689L169.056,357.41L169.321,357.132L169.59,356.855L169.861,356.579L170.135,356.305L170.412,356.031L170.691,355.758L170.974,355.486L171.259,355.216L171.547,354.946L171.837,354.677L172.131,354.41L172.427,354.144L172.726,353.878L173.027,353.614L173.332,353.351L173.639,353.089L173.948,352.828L174.26,352.569L174.575,352.31L174.893,352.053L175.213,351.796L175.536,351.541L175.861,351.287L176.189,351.034L176.52,350.783L176.853,350.532L177.189,350.283L177.527,350.035L177.868,349.788L178.211,349.542L178.557,349.298L178.905,349.055L179.256,348.812L179.609,348.572L179.965,348.332L180.323,348.094L180.684,347.857L181.047,347.621L181.413,347.386L181.781,347.153L182.151,346.921L182.524,346.69L182.899,346.461L183.277,346.232L183.656,346.006L184.039,345.78L184.423,345.556L184.81,345.333L185.199,345.111L185.591,344.891L185.985,344.672L186.381,344.454L186.779,344.238L187.18,344.023L187.582,343.81L187.987,343.597L188.395,343.387L188.804,343.177L189.216,342.969L189.63,342.763L190.046,342.557L190.464,342.354L190.885,342.151L191.307,341.95L191.732,341.751L192.158,341.553L192.587,341.356L193.018,341.161L193.451,340.967L193.887,340.775L194.324,340.584L194.763,340.394L195.205,340.206L195.648,340.02L196.093,339.835L196.541,339.652L196.99,339.47L197.441,339.289L197.895,339.111L198.35,338.933L198.807,338.757L199.267,338.583L199.728,338.41L200.191,338.239L200.656,338.07L201.123,337.901L201.591,337.735L202.062,337.57L202.535,337.407L203.009,337.245L203.485,337.085L203.963,336.926L204.443,336.769L204.925,336.614L205.408,336.46L205.893,336.308L206.38,336.158L206.869,336.009L207.36,335.862L207.852,335.716L208.346,335.572L208.842,335.43L209.339,335.29L209.838,335.151L210.339,335.014L210.841,334.878L211.345,334.744L211.851,334.612L212.359,334.482L212.868,334.353L213.378,334.226L213.891,334.101L214.405,333.978L214.92,333.856L215.437,333.736L215.956,333.618L216.476,333.501L216.997,333.387L217.521,333.274L218.045,333.163L218.571,333.053L219.099,332.946L219.628,332.84L220.159,332.736L220.691,332.634L221.225,332.534L221.76,332.435L222.296,332.339L222.834,332.244L223.373,332.151L223.914,332.06L224.456,331.971L224.999,331.883L225.544,331.798L226.09,331.714L226.638,331.633L227.186,331.553L227.736,331.475L228.288,331.399L228.841,331.325L229.394,331.252L229.95,331.182L230.506,331.114L231.064,331.047L231.623,330.983L232.183,330.92L232.744,330.86L233.307,330.801L233.871,330.745L234.436,330.69L235.002,330.637L235.569,330.586L236.138,330.538L236.707,330.491L237.278,330.446L237.85,330.404L238.423,330.363L238.997,330.324L239.572,330.288L240.148,330.253L240.725,330.221L241.303,330.19L241.883,330.162L242.463,330.135L243.044,330.111L243.626,330.089L244.21,330.069L244.794,330.051L245.379,330.035L245.965,330.021L246.553,330.009L247.141,330L247.73,329.992L248.319,329.987L248.91,329.984L249.502,329.983L250.094,329.984ZM248.914,330.984L248.327,330.987L247.74,330.992L247.155,331L246.571,331.009L245.987,331.021L245.405,331.035L244.823,331.05L244.242,331.068L243.663,331.088L243.084,331.11L242.506,331.135L241.93,331.161L241.354,331.189L240.779,331.219L240.206,331.252L239.633,331.286L239.062,331.322L238.492,331.361L237.922,331.401L237.354,331.443L236.787,331.488L236.221,331.534L235.656,331.583L235.093,331.633L234.53,331.685L233.969,331.74L233.409,331.796L232.85,331.854L232.292,331.914L231.736,331.977L231.18,332.041L230.626,332.107L230.073,332.174L229.522,332.244L228.972,332.316L228.423,332.39L227.875,332.465L227.329,332.543L226.783,332.622L226.24,332.703L225.697,332.786L225.156,332.871L224.617,332.958L224.078,333.046L223.541,333.137L223.006,333.229L222.472,333.323L221.939,333.419L221.408,333.517L220.878,333.617L220.349,333.718L219.822,333.821L219.297,333.926L218.773,334.033L218.251,334.141L217.73,334.252L217.21,334.364L216.692,334.478L216.176,334.593L215.661,334.711L215.148,334.83L214.636,334.951L214.126,335.073L213.618,335.197L213.111,335.323L212.606,335.451L212.102,335.58L211.6,335.711L211.1,335.844L210.601,335.979L210.104,336.115L209.609,336.252L209.115,336.392L208.623,336.533L208.133,336.676L207.645,336.82L207.158,336.966L206.674,337.114L206.19,337.263L205.709,337.414L205.23,337.566L204.752,337.72L204.276,337.876L203.802,338.033L203.33,338.192L202.859,338.352L202.391,338.514L201.924,338.678L201.459,338.843L200.997,339.01L200.536,339.178L200.077,339.348L199.619,339.519L199.164,339.692L198.711,339.866L198.26,340.042L197.81,340.219L197.363,340.398L196.918,340.578L196.475,340.76L196.033,340.943L195.594,341.127L195.157,341.314L194.722,341.501L194.289,341.69L193.858,341.881L193.429,342.073L193.002,342.266L192.577,342.461L192.155,342.657L191.734,342.854L191.316,343.053L190.9,343.254L190.486,343.455L190.074,343.658L189.665,343.863L189.257,344.069L188.852,344.276L188.449,344.484L188.049,344.694L187.65,344.906L187.254,345.118L186.86,345.332L186.468,345.547L186.079,345.764L185.692,345.981L185.307,346.2L184.925,346.421L184.545,346.643L184.167,346.865L183.792,347.09L183.419,347.315L183.048,347.542L182.68,347.77L182.314,347.999L181.951,348.229L181.59,348.461L181.231,348.694L180.875,348.928L180.521,349.163L180.17,349.4L179.822,349.637L179.476,349.876L179.132,350.116L178.791,350.357L178.452,350.599L178.116,350.843L177.783,351.088L177.452,351.333L177.123,351.58L176.797,351.828L176.474,352.077L176.154,352.328L175.836,352.579L175.52,352.831L175.208,353.085L174.897,353.339L174.59,353.595L174.285,353.852L173.983,354.11L173.684,354.369L173.387,354.628L173.093,354.889L172.802,355.151L172.514,355.414L172.228,355.678L171.945,355.943L171.665,356.209L171.387,356.476L171.113,356.744L170.841,357.013L170.572,357.283L170.306,357.554L170.042,357.826L169.782,358.098L169.524,358.372L169.269,358.647L169.017,358.922L168.768,359.199L168.522,359.476L168.279,359.755L168.038,360.034L167.801,360.314L167.566,360.595L167.335,360.877L167.106,361.159L166.881,361.443L166.658,361.727L166.438,362.013L166.222,362.299L166.008,362.586L165.797,362.874L165.693,363.018L165.59,363.162L165.487,363.307L165.385,363.451L165.284,363.596L165.184,363.742L165.084,363.887L164.985,364.033L164.887,364.178L164.79,364.324L164.693,364.47L164.597,364.617L164.502,364.763L164.408,364.91L164.314,365.057L164.222,365.204L164.13,365.352L164.039,365.499L163.948,365.647L163.859,365.795L163.77,365.943L163.682,366.091L163.595,366.24L163.508,366.388L163.422,366.537L163.338,366.686L163.253,366.835L163.17,366.985L163.088,367.134L163.006,367.284L162.925,367.434L162.845,367.584L162.765,367.734L162.687,367.885L162.609,368.035L162.532,368.186L162.456,368.337L162.38,368.488L162.306,368.64L162.232,368.791L162.159,368.943L162.087,369.095L162.016,369.246L161.945,369.399L161.875,369.551L161.806,369.703L161.738,369.856L161.671,370.009L161.604,370.162L161.539,370.315L161.474,370.469L161.41,370.622L161.347,370.776L161.284,370.929L161.223,371.084L161.162,371.238L161.102,371.392L161.043,371.546L160.984,371.701L160.927,371.856L160.87,372.011L160.814,372.166L160.759,372.321L160.705,372.476L160.652,372.632L160.599,372.788L160.548,372.944L160.497,373.1L160.447,373.256L160.397,373.412L160.349,373.569L160.302,373.725L160.255,373.882L160.209,374.039L160.164,374.196L160.12,374.353L160.077,374.51L160.034,374.668L159.993,374.826L159.952,374.984L159.912,375.141L159.873,375.3L159.835,375.458L159.797,375.616L159.761,375.775L159.725,375.933L159.69,376.092L159.656,376.251L159.623,376.41L159.591,376.569L159.56,376.729L159.529,376.888L159.5,377.048L159.471,377.208L159.443,377.368L159.416,377.528L159.39,377.688L159.364,377.848L159.34,378.009L159.316,378.169L159.294,378.33L159.272,378.491L159.251,378.652L159.231,378.813L159.212,378.975L159.193,379.136L159.176,379.298L159.159,379.459L159.144,379.621L159.129,379.783L159.115,379.945L159.102,380.107L159.09,380.27L159.079,380.432L159.068,380.595L159.059,380.757L159.05,380.92L159.043,381.083L159.036,381.246L159.03,381.41L159.025,381.573L159.021,381.737L159.018,381.9L159.016,382.064L159.014,382.228L159.014,382.391L159.015,382.672L159.019,382.953L159.026,383.232L159.035,383.512L159.047,383.791L159.061,384.07L159.079,384.348L159.098,384.626L159.121,384.904L159.146,385.181L159.173,385.457L159.203,385.734L159.236,386.01L159.271,386.286L159.309,386.561L159.349,386.836L159.392,387.11L159.438,387.384L159.486,387.658L159.536,387.931L159.589,388.204L159.645,388.476L159.703,388.748L159.764,389.02L159.827,389.291L159.892,389.561L159.961,389.832L160.031,390.101L160.104,390.371L160.18,390.64L160.258,390.909L160.338,391.177L160.421,391.444L160.507,391.712L160.594,391.978L160.685,392.245L160.777,392.511L160.873,392.776L160.97,393.041L161.07,393.306L161.172,393.57L161.277,393.833L161.384,394.096L161.494,394.359L161.606,394.621L161.72,394.883L161.837,395.144L161.956,395.405L162.078,395.665L162.201,395.925L162.328,396.184L162.456,396.442L162.587,396.701L162.72,396.958L162.856,397.215L162.994,397.472L163.134,397.728L163.276,397.984L163.421,398.239L163.568,398.493L163.718,398.747L163.87,399.001L164.023,399.254L164.18,399.506L164.338,399.758L164.499,400.009L164.662,400.26L164.828,400.51L164.995,400.759L165.165,401.008L165.337,401.257L165.511,401.504L165.688,401.751L165.867,401.998L166.047,402.244L166.231,402.489L166.416,402.734L166.604,402.978L166.793,403.222L166.985,403.465L167.179,403.707L167.376,403.949L167.574,404.19L167.775,404.43L167.977,404.67L168.182,404.909L168.389,405.147L168.598,405.385L168.81,405.622L169.023,405.859L169.238,406.094L169.456,406.329L169.676,406.564L169.898,406.798L170.121,407.031L170.347,407.263L170.575,407.494L170.805,407.725L171.038,407.956L171.272,408.185L171.508,408.414L171.746,408.642L171.987,408.869L172.229,409.096L172.473,409.322L172.72,409.547L172.968,409.771L173.219,409.995L173.471,410.218L173.725,410.44L173.982,410.661L174.24,410.882L174.5,411.102L174.763,411.321L175.027,411.539L175.293,411.756L175.561,411.973L175.831,412.189L176.103,412.404L176.377,412.618L176.653,412.832L176.93,413.044L177.21,413.256L177.491,413.467L177.775,413.677L178.06,413.887L178.347,414.095L178.636,414.303L178.927,414.509L179.219,414.715L179.514,414.921L179.81,415.125L180.108,415.328L180.408,415.531L180.71,415.732L181.014,415.933L181.319,416.133L181.626,416.332L181.935,416.53L182.246,416.727L182.558,416.924L182.873,417.119L183.189,417.313L183.506,417.507L183.826,417.7L184.147,417.891L184.47,418.082L184.795,418.272L185.121,418.461L185.45,418.649L185.779,418.836L186.111,419.022L186.444,419.208L186.779,419.392L187.116,419.575L187.454,419.757L187.794,419.939L188.135,420.119L188.478,420.298L188.823,420.477L189.17,420.654L189.518,420.83L189.867,421.006L190.219,421.18L190.572,421.354L190.926,421.526L191.282,421.697L191.64,421.868L191.999,422.037L192.36,422.205L192.722,422.373L193.086,422.539L193.452,422.704L193.819,422.868L194.187,423.032L194.557,423.194L194.929,423.355L195.302,423.515L195.677,423.673L196.053,423.831L196.43,423.988L196.809,424.144L197.19,424.298L197.572,424.452L197.955,424.604L198.34,424.756L198.726,424.906L199.114,425.055L199.503,425.203L199.894,425.35L200.286,425.496L200.68,425.64L201.074,425.784L201.471,425.926L201.868,426.068L202.267,426.208L202.668,426.347L203.069,426.485L203.473,426.621L203.877,426.757L204.283,426.891L204.69,427.025L205.099,427.157L205.508,427.288L205.919,427.417L206.332,427.546L206.746,427.673L207.161,427.799L207.577,427.924L207.995,428.048L208.414,428.171L208.834,428.292L209.255,428.413L209.678,428.532L210.102,428.649L210.527,428.766L210.953,428.881L211.381,428.995L211.81,429.108L212.24,429.22L212.671,429.33L213.103,429.439L213.537,429.547L213.972,429.654L214.408,429.759L214.845,429.863L215.283,429.966L215.723,430.068L216.163,430.168L216.605,430.267L217.048,430.365L217.492,430.462L217.937,430.557L218.383,430.651L218.83,430.743L219.279,430.835L219.728,430.925L220.179,431.013L220.631,431.101L221.083,431.187L221.537,431.272L221.992,431.355L222.448,431.437L222.905,431.518L223.363,431.597L223.822,431.675L224.282,431.752L224.743,431.827L225.205,431.901L225.668,431.974L226.132,432.045L226.597,432.115L227.063,432.184L227.529,432.251L227.997,432.317L229.687,432.549L229.117,434.146L228.957,434.589L228.793,435.033L228.626,435.48L228.456,435.928L228.282,436.378L228.105,436.83L227.924,437.283L227.74,437.737L227.552,438.193L227.361,438.649L227.167,439.105L227.068,439.335L226.969,439.564L226.868,439.793L226.767,440.022L226.665,440.251L226.562,440.48L226.458,440.709L226.353,440.938L226.247,441.167L226.14,441.396L226.033,441.625L225.924,441.854L225.815,442.083L225.704,442.312L225.593,442.541L225.481,442.769L225.368,442.997L225.253,443.225L225.138,443.453L225.022,443.681L224.905,443.908L224.787,444.135L224.668,444.362L224.548,444.588L224.428,444.815L224.306,445.04L224.183,445.266L224.059,445.491L223.935,445.715L223.809,445.939L223.682,446.163L223.555,446.386L223.426,446.609L223.296,446.831L223.166,447.053L223.034,447.274L222.901,447.494L222.768,447.714L222.633,447.933L222.497,448.152L222.36,448.37L222.223,448.587L222.084,448.804L221.944,449.019L221.803,449.235L221.661,449.449L221.518,449.662L221.374,449.875L221.229,450.087L221.083,450.298L220.936,450.508L220.788,450.718L220.639,450.926L220.489,451.133L220.337,451.34L220.185,451.546L220.031,451.75L219.877,451.954L219.721,452.156L219.564,452.358L219.406,452.558L219.247,452.757L219.087,452.955L218.926,453.153L218.763,453.348L218.6,453.543L218.435,453.737L218.27,453.929L218.103,454.12L217.935,454.31L217.766,454.498L217.596,454.686L217.424,454.872L217.252,455.056L217.078,455.239L216.903,455.421L216.727,455.601L216.55,455.78L216.372,455.958L216.192,456.134L216.011,456.309L215.83,456.482L215.647,456.653L215.462,456.823L215.277,456.991L215.09,457.158L214.902,457.323L214.713,457.487L214.523,457.649L214.332,457.809L214.284,457.848L214.367,457.839L214.555,457.819L214.743,457.798L214.931,457.775L215.118,457.752L215.306,457.728L215.493,457.702L215.681,457.676L215.868,457.648L216.056,457.62L216.243,457.59L216.431,457.56L216.618,457.528L216.805,457.496L216.993,457.462L217.18,457.427L217.367,457.392L217.554,457.355L217.741,457.318L217.929,457.279L218.116,457.24L218.302,457.199L218.489,457.158L218.676,457.115L218.863,457.072L219.05,457.028L219.236,456.982L219.423,456.936L219.61,456.889L219.796,456.841L219.982,456.792L220.169,456.742L220.355,456.691L220.541,456.64L220.727,456.587L220.913,456.533L221.099,456.479L221.285,456.424L221.471,456.367L221.657,456.31L221.842,456.252L222.028,456.193L222.213,456.133L222.399,456.073L222.584,456.011L222.769,455.949L222.954,455.886L223.139,455.822L223.324,455.757L223.509,455.691L223.693,455.625L223.878,455.557L224.062,455.489L224.246,455.42L224.431,455.35L224.615,455.279L224.799,455.208L224.982,455.136L225.166,455.063L225.35,454.989L225.533,454.914L225.716,454.839L225.9,454.763L226.083,454.686L226.266,454.608L226.448,454.53L226.631,454.45L226.814,454.37L226.995,454.29L227.36,454.126L227.724,453.96L228.087,453.79L228.45,453.618L228.812,453.443L229.173,453.265L229.533,453.085L229.893,452.902L230.252,452.716L230.611,452.527L230.969,452.336L231.326,452.143L231.682,451.947L232.037,451.749L232.392,451.548L232.746,451.345L233.099,451.139L233.451,450.932L233.802,450.722L234.153,450.509L234.502,450.295L234.851,450.079L235.199,449.86L235.545,449.64L235.891,449.417L236.236,449.193L236.58,448.967L236.923,448.738L237.265,448.508L237.606,448.277L237.945,448.043L238.284,447.808L238.622,447.571L238.958,447.333L239.294,447.092L239.628,446.851L239.962,446.608L240.294,446.363L240.625,446.117L240.954,445.87L241.283,445.621L241.61,445.371L241.936,445.12L242.261,444.868L242.585,444.614L242.907,444.36L243.229,444.104L243.548,443.847L243.867,443.589L244.184,443.33L244.5,443.071L244.814,442.81L245.127,442.549L245.439,442.287L245.749,442.024L246.058,441.76L246.366,441.496L246.672,441.231L246.976,440.966L247.279,440.7L247.581,440.433L247.881,440.166L248.179,439.899L248.476,439.631L248.772,439.363L249.066,439.094L249.358,438.826L249.649,438.557L249.938,438.288L250.225,438.019L250.511,437.749L250.795,437.48L251.078,437.211L251.358,436.942L251.638,436.672L251.915,436.403L252.191,436.134L252.465,435.866L252.737,435.597L253.007,435.329L253.276,435.061L253.543,434.794L253.808,434.527L254.071,434.26L254.612,433.709L255.57,433.674L256.127,433.652L256.683,433.629L257.238,433.603L257.792,433.575L258.346,433.545L258.898,433.514L259.449,433.48L259.999,433.445L260.548,433.408L261.097,433.369L261.644,433.328L262.19,433.285L262.735,433.241L263.279,433.194L263.822,433.146L264.364,433.096L264.905,433.044L265.444,432.99L265.983,432.935L266.521,432.877L267.057,432.818L267.592,432.757L268.126,432.695L268.659,432.63L269.191,432.564L269.722,432.496L270.251,432.426L270.779,432.354L271.307,432.281L271.832,432.206L272.357,432.129L272.88,432.05L273.402,431.97L273.923,431.888L274.443,431.804L274.961,431.719L275.478,431.631L275.994,431.542L276.509,431.452L277.022,431.36L277.534,431.266L278.044,431.17L278.553,431.073L279.061,430.974L279.567,430.873L280.072,430.771L280.576,430.667L281.078,430.561L281.579,430.454L282.078,430.345L282.576,430.234L283.073,430.122L283.568,430.008L284.062,429.893L284.554,429.776L285.045,429.657L285.534,429.537L286.022,429.416L286.508,429.292L286.993,429.167L287.476,429.041L287.957,428.913L288.437,428.783L288.916,428.652L289.393,428.519L289.868,428.385L290.342,428.249L290.814,428.112L291.285,427.973L291.754,427.833L292.221,427.691L292.687,427.548L293.151,427.403L293.613,427.257L294.074,427.109L294.533,426.959L294.99,426.809L295.446,426.656L295.9,426.503L296.352,426.348L296.802,426.191L297.251,426.033L297.698,425.873L298.143,425.713L298.587,425.55L299.028,425.386L299.468,425.221L299.906,425.055L300.342,424.887L300.777,424.717L301.209,424.546L301.64,424.374L302.069,424.201L302.496,424.026L302.921,423.85L303.345,423.672L303.766,423.493L304.185,423.313L304.603,423.131L305.019,422.948L305.432,422.764L305.844,422.578L306.254,422.391L306.662,422.203L307.068,422.013L307.471,421.822L307.873,421.63L308.273,421.436L308.671,421.242L309.067,421.046L309.461,420.848L309.852,420.65L310.242,420.45L310.63,420.249L311.015,420.047L311.399,419.843L311.78,419.638L312.159,419.432L312.536,419.225L312.911,419.017L313.284,418.807L313.655,418.596L314.024,418.384L314.39,418.171L314.754,417.956L315.116,417.741L315.476,417.524L315.834,417.306L316.189,417.087L316.542,416.867L316.893,416.645L317.242,416.423L317.588,416.199L317.933,415.974L318.275,415.749L318.614,415.522L318.951,415.294L319.286,415.064L319.619,414.834L319.95,414.603L320.278,414.37L320.603,414.137L320.927,413.902L321.248,413.666L321.566,413.43L321.882,413.192L322.196,412.953L322.507,412.713L322.816,412.472L323.123,412.231L323.427,411.988L323.729,411.744L324.028,411.499L324.325,411.253L324.619,411.006L324.911,410.758L325.2,410.509L325.487,410.259L325.771,410.009L326.053,409.757L326.332,409.504L326.609,409.251L326.883,408.996L327.154,408.74L327.423,408.484L327.69,408.227L327.954,407.968L328.215,407.709L328.473,407.449L328.729,407.188L328.983,406.926L329.234,406.664L329.482,406.4L329.727,406.136L329.97,405.87L330.21,405.604L330.447,405.337L330.682,405.069L330.914,404.801L331.143,404.531L331.37,404.261L331.594,403.99L331.815,403.718L332.033,403.445L332.249,403.171L332.462,402.897L332.672,402.622L332.879,402.346L333.083,402.069L333.285,401.792L333.484,401.514L333.68,401.235L333.873,400.955L334.064,400.675L334.251,400.394L334.436,400.112L334.618,399.829L334.797,399.546L334.973,399.262L335.146,398.977L335.316,398.692L335.484,398.406L335.648,398.119L335.81,397.832L335.968,397.544L336.124,397.255L336.278,396.964L336.352,396.821L336.427,396.675L336.501,396.53L336.574,396.385L336.646,396.239L336.718,396.093L336.788,395.947L336.858,395.801L336.928,395.655L336.996,395.509L337.064,395.362L337.131,395.215L337.198,395.069L337.263,394.921L337.328,394.774L337.392,394.627L337.455,394.48L337.518,394.332L337.58,394.184L337.641,394.036L337.701,393.888L337.761,393.74L337.82,393.591L337.877,393.443L337.935,393.294L337.991,393.145L338.047,392.996L338.102,392.847L338.156,392.698L338.21,392.549L338.262,392.399L338.314,392.249L338.365,392.1L338.416,391.95L338.465,391.799L338.514,391.649L338.562,391.499L338.609,391.348L338.656,391.197L338.701,391.047L338.746,390.896L338.79,390.745L338.834,390.593L338.876,390.442L338.918,390.291L338.959,390.139L338.999,389.987L339.039,389.835L339.077,389.683L339.115,389.531L339.152,389.379L339.189,389.226L339.224,389.074L339.259,388.921L339.293,388.768L339.326,388.615L339.358,388.462L339.39,388.308L339.42,388.155L339.45,388.002L339.479,387.848L339.508,387.694L339.535,387.54L339.562,387.386L339.588,387.232L339.613,387.078L339.637,386.923L339.661,386.769L339.683,386.614L339.705,386.459L339.726,386.305L339.747,386.149L339.766,385.994L339.785,385.839L339.802,385.684L339.82,385.528L339.836,385.372L339.851,385.217L339.866,385.061L339.879,384.905L339.892,384.748L339.904,384.592L339.915,384.436L339.926,384.279L339.936,384.123L339.944,383.966L339.952,383.809L339.959,383.652L339.966,383.495L339.971,383.338L339.976,383.18L339.979,383.023L339.982,382.865L339.984,382.708L339.986,382.55L339.986,382.392L339.986,382.228L339.984,382.064L339.982,381.9L339.979,381.737L339.975,381.573L339.97,381.41L339.964,381.246L339.957,381.083L339.95,380.92L339.941,380.757L339.932,380.595L339.921,380.432L339.91,380.27L339.898,380.107L339.885,379.945L339.871,379.783L339.856,379.621L339.841,379.459L339.824,379.298L339.807,379.136L339.788,378.974L339.769,378.813L339.749,378.652L339.728,378.491L339.706,378.33L339.684,378.169L339.66,378.009L339.636,377.848L339.61,377.688L339.584,377.528L339.557,377.368L339.529,377.208L339.5,377.048L339.471,376.888L339.44,376.729L339.409,376.569L339.377,376.41L339.344,376.251L339.31,376.092L339.275,375.933L339.239,375.775L339.203,375.616L339.165,375.458L339.127,375.3L339.088,375.141L339.048,374.983L339.007,374.826L338.966,374.668L338.923,374.511L338.88,374.353L338.836,374.196L338.791,374.039L338.745,373.882L338.698,373.725L338.651,373.569L338.603,373.412L338.553,373.256L338.503,373.1L338.452,372.944L338.401,372.788L338.348,372.632L338.295,372.476L338.241,372.321L338.186,372.166L338.13,372.011L338.073,371.856L338.016,371.701L337.957,371.546L337.898,371.392L337.838,371.238L337.777,371.083L337.716,370.929L337.653,370.776L337.59,370.622L337.526,370.469L337.461,370.315L337.396,370.162L337.329,370.009L337.262,369.856L337.194,369.703L337.125,369.551L337.055,369.399L336.984,369.246L336.913,369.094L336.841,368.943L336.768,368.791L336.694,368.639L336.62,368.488L336.544,368.337L336.468,368.186L336.391,368.035L336.313,367.885L336.235,367.734L336.155,367.584L336.075,367.434L335.994,367.284L335.912,367.134L335.83,366.985L335.747,366.835L335.663,366.686L335.578,366.537L335.492,366.388L335.405,366.24L335.318,366.091L335.23,365.943L335.141,365.795L335.052,365.647L334.961,365.499L334.87,365.352L334.778,365.204L334.686,365.057L334.592,364.91L334.498,364.763L334.403,364.617L334.307,364.47L334.21,364.324L334.113,364.178L334.015,364.033L333.916,363.887L333.817,363.741L333.716,363.596L333.615,363.451L333.513,363.307L333.41,363.162L333.307,363.018L333.203,362.874L332.992,362.586L332.778,362.299L332.562,362.013L332.342,361.727L332.119,361.443L331.894,361.159L331.665,360.877L331.434,360.595L331.199,360.314L330.962,360.034L330.721,359.755L330.478,359.476L330.232,359.199L329.983,358.922L329.731,358.647L329.476,358.372L329.219,358.098L328.958,357.826L328.695,357.554L328.428,357.283L328.159,357.013L327.888,356.744L327.613,356.476L327.335,356.209L327.055,355.943L326.772,355.678L326.487,355.414L326.198,355.151L325.907,354.889L325.613,354.628L325.316,354.369L325.017,354.11L324.715,353.852L324.41,353.595L324.103,353.339L323.793,353.085L323.48,352.831L323.165,352.579L322.847,352.328L322.526,352.077L322.203,351.828L321.877,351.58L321.549,351.333L321.218,351.088L320.884,350.843L320.548,350.599L320.21,350.357L319.868,350.116L319.525,349.876L319.179,349.637L318.83,349.4L318.479,349.163L318.125,348.928L317.769,348.694L317.411,348.461L317.05,348.229L316.686,347.999L316.321,347.77L315.952,347.542L315.582,347.315L315.209,347.09L314.833,346.865L314.456,346.642L314.076,346.421L313.693,346.2L313.309,345.981L312.922,345.764L312.532,345.547L312.141,345.332L311.747,345.118L311.35,344.906L310.952,344.694L310.551,344.484L310.148,344.276L309.743,344.069L309.336,343.863L308.926,343.658L308.515,343.455L308.101,343.254L307.685,343.053L307.266,342.854L306.846,342.657L306.423,342.461L305.999,342.266L305.572,342.073L305.143,341.881L304.712,341.69L304.279,341.501L303.844,341.314L303.407,341.127L302.967,340.943L302.526,340.76L302.083,340.578L301.638,340.398L301.19,340.219L300.741,340.042L300.29,339.866L299.837,339.692L299.382,339.519L298.924,339.348L298.465,339.178L298.005,339.01L297.542,338.843L297.077,338.678L296.61,338.514L296.142,338.352L295.671,338.192L295.199,338.033L294.725,337.876L294.249,337.72L293.772,337.566L293.292,337.414L292.811,337.263L292.328,337.114L291.843,336.966L291.356,336.82L290.868,336.676L290.378,336.533L289.886,336.392L289.392,336.252L288.897,336.115L288.4,335.979L287.902,335.844L287.401,335.711L286.9,335.58L286.396,335.451L285.891,335.323L285.384,335.197L284.875,335.073L284.365,334.95L283.854,334.83L283.341,334.711L282.826,334.593L282.309,334.478L281.792,334.364L281.272,334.252L280.751,334.141L280.229,334.033L279.705,333.926L279.179,333.821L278.653,333.718L278.124,333.617L277.594,333.517L277.063,333.419L276.53,333.323L275.996,333.229L275.461,333.137L274.924,333.046L274.386,332.958L273.846,332.871L273.305,332.786L272.763,332.703L272.219,332.622L271.674,332.543L271.127,332.465L270.58,332.39L270.031,332.316L269.481,332.244L268.929,332.174L268.376,332.107L267.822,332.041L267.267,331.977L266.711,331.914L266.153,331.854L265.594,331.796L265.034,331.74L264.473,331.685L263.91,331.633L263.346,331.583L262.782,331.534L262.216,331.488L261.649,331.443L261.081,331.401L260.511,331.361L259.941,331.322L259.37,331.286L258.797,331.252L258.224,331.219L257.649,331.189L257.074,331.161L256.497,331.135L255.919,331.11L255.341,331.088L254.761,331.068L254.181,331.05L253.599,331.035L253.016,331.021L252.433,331.009L251.849,331L251.263,330.992L250.677,330.987L250.09,330.984L249.502,330.983L248.914,330.984Z" style="fill:rgb(145,167,207);"/>
        </g>
    </g>
</svg>
